<?xml version="1.0" encoding="UTF-8" standalone="no"?>
<!-- Created with Inkscape (http://www.inkscape.org/) -->

<svg
   width="54.938858mm"
   height="9.7366638mm"
   viewBox="0 0 54.938858 9.7366638"
   version="1.1"
   id="svg5"
   inkscape:export-filename="bitmapa.svg"
   inkscape:export-xdpi="96"
   inkscape:export-ydpi="96"
   xmlns:inkscape="http://www.inkscape.org/namespaces/inkscape"
   xmlns:sodipodi="http://sodipodi.sourceforge.net/DTD/sodipodi-0.dtd"
   xmlns="http://www.w3.org/2000/svg"
   xmlns:svg="http://www.w3.org/2000/svg">
  <sodipodi:namedview
     id="namedview7"
     pagecolor="#ffffff"
     bordercolor="#000000"
     borderopacity="0.25"
     inkscape:showpageshadow="2"
     inkscape:pageopacity="0.0"
     inkscape:pagecheckerboard="0"
     inkscape:deskcolor="#d1d1d1"
     inkscape:document-units="mm"
     showgrid="false" />
  <defs
     id="defs2" />
  <g
     inkscape:label="Warstwa 1"
     inkscape:groupmode="layer"
     id="layer1"
     transform="translate(-30.747027,-25.314086)">
    <g
       aria-label="GONCIU"
       id="text236"
       style="font-size:14.1111px;font-family:'Zapf Dingbats';-inkscape-font-specification:'Zapf Dingbats';letter-spacing:0.960437px;fill:#121212;stroke-width:0.79375">
      <path
         d="m 35.784691,25.314087 q 0.790222,0 1.509888,0.141111 0.719666,0.126999 1.298221,0.409221 l -0.211666,1.030111 q -0.606778,-0.239889 -1.269999,-0.381 -0.649111,-0.141111 -1.312333,-0.141111 -1.749776,0 -2.751664,1.03011 -1.001888,1.016 -1.001888,2.892776 0,1.806221 0.945443,2.779887 0.945444,0.959554 2.836332,0.959554 0.451555,0 0.90311,-0.05644 0.465666,-0.07055 0.790222,-0.169333 V 30.74686 h 1.185332 v 3.781775 q -0.536222,0.225778 -1.368777,0.366889 -0.832555,0.155222 -1.66511,0.155222 -1.15711,0 -2.074331,-0.338667 -0.917222,-0.352777 -1.552221,-0.973666 -0.635,-0.634999 -0.973666,-1.509887 -0.324556,-0.874889 -0.324556,-1.933221 0,-1.100666 0.338667,-2.017887 0.352777,-0.917222 1.001888,-1.566333 0.649111,-0.663221 1.580443,-1.03011 0.931333,-0.366888 2.116665,-0.366888 z"
         style="font-family:Seravek;-inkscape-font-specification:Seravek"
         id="path1327" />
      <path
         d="m 45.874983,35.050746 q -1.100665,0 -1.961443,-0.395111 -0.860777,-0.395111 -1.439332,-1.058333 -0.578555,-0.663221 -0.888999,-1.552221 -0.296333,-0.888999 -0.296333,-1.862665 0,-0.973666 0.296333,-1.862665 0.310444,-0.888999 0.888999,-1.552221 0.578555,-0.663222 1.439332,-1.058333 0.860778,-0.39511 1.961443,-0.39511 1.100666,0 1.961443,0.39511 0.860777,0.395111 1.439333,1.058333 0.578555,0.663222 0.874888,1.552221 0.310444,0.888999 0.310444,1.862665 0,0.973666 -0.310444,1.862665 -0.296333,0.889 -0.874888,1.552221 -0.578556,0.663222 -1.439333,1.058333 -0.860777,0.395111 -1.961443,0.395111 z m 0,-1.044222 q 0.804333,0 1.425221,-0.296333 0.620889,-0.296333 1.030111,-0.818444 0.409222,-0.52211 0.620888,-1.213554 0.211667,-0.705555 0.211667,-1.495777 0,-0.790221 -0.211667,-1.481665 -0.211666,-0.705555 -0.620888,-1.213555 -0.409222,-0.522111 -1.030111,-0.818444 -0.620888,-0.310444 -1.425221,-0.310444 -0.804332,0 -1.425221,0.310444 -0.620888,0.296333 -1.03011,0.818444 -0.409222,0.508 -0.620888,1.213555 -0.211667,0.691444 -0.211667,1.481665 0,0.790222 0.211667,1.495777 0.211666,0.691444 0.620888,1.213554 0.409222,0.522111 1.03011,0.818444 0.620889,0.296333 1.425221,0.296333 z"
         style="font-family:Seravek;-inkscape-font-specification:Seravek"
         id="path1329" />
      <path
         d="m 59.690629,34.881413 -5.26344,-7.380106 v 7.380106 H 53.185412 V 25.48342 h 1.241777 l 5.26344,7.380105 V 25.48342 h 1.241777 v 9.397993 z"
         style="font-family:Seravek;-inkscape-font-specification:Seravek"
         id="path1331" />
      <path
         d="m 68.510943,25.314087 q 0.634999,0 1.326443,0.126999 0.691444,0.112889 1.15711,0.310445 l -0.211666,1.001888 q -0.479778,-0.169333 -1.030111,-0.268111 -0.550332,-0.112889 -1.086554,-0.112889 -1.763888,0 -2.751665,0.987777 -0.987777,0.987777 -0.987777,2.82222 0,1.834443 0.987777,2.82222 0.987777,0.987777 2.751665,0.987777 0.536222,0 1.086554,-0.09878 0.550333,-0.112888 1.030111,-0.282222 l 0.211666,1.001889 q -0.465666,0.197555 -1.15711,0.310444 -0.691444,0.127 -1.326443,0.127 -1.157111,0 -2.074332,-0.366889 -0.90311,-0.366889 -1.523999,-1.015999 -0.620888,-0.649111 -0.959555,-1.53811 -0.324555,-0.888999 -0.324555,-1.947332 0,-1.058332 0.324555,-1.947332 0.338667,-0.888999 0.959555,-1.53811 0.620889,-0.64911 1.523999,-1.015999 0.917221,-0.366888 2.074332,-0.366888 z"
         style="font-family:Seravek;-inkscape-font-specification:Seravek"
         id="path1333" />
      <path
         d="M 75.087581,34.881413 H 73.78936 V 25.48342 h 1.298221 z"
         style="font-family:Seravek;-inkscape-font-specification:Seravek"
         id="path1335" />
      <path
         d="m 84.387665,25.48342 h 1.298221 v 6.067773 q 0,0.733777 -0.239889,1.382888 -0.239889,0.634999 -0.705555,1.114777 -0.465666,0.465666 -1.15711,0.733777 -0.677333,0.268111 -1.580443,0.268111 -0.903111,0 -1.594555,-0.268111 Q 79.731002,34.514524 79.265335,34.048858 78.799669,33.56908 78.55978,32.934081 78.319892,32.28497 78.319892,31.551193 V 25.48342 h 1.298221 v 6.124217 q 0,1.058333 0.592666,1.721554 0.606777,0.663222 1.79211,0.663222 1.185332,0 1.777998,-0.663222 0.606778,-0.663221 0.606778,-1.721554 z"
         style="font-family:Seravek;-inkscape-font-specification:Seravek"
         id="path1337" />
    </g>
  </g>
</svg>
