<svg xmlns="http://www.w3.org/2000/svg" width="511.712" height="511.716" viewBox="0 0 511.712 511.716" nighteye="disabled">
  <g id="Rocket" transform="translate(-412.325 -296.97)">
    <g id="UpperPart">
      <path id="Path_2" data-name="Path 2" d="M537.435,537.94s46.158-168.256,245.789-219.595l60.365,60.049L610.35,610.515Z" fill="#ddf2fb"/>
      <path id="Path_3" data-name="Path 3" d="M610.779,610.438l-57.553,57.4-65.433-66.452s-5.645-9.107,3.2-17.5l46.149-45.821Z" fill="#0c3c6f"/>
      <path id="Path_4" data-name="Path 4" d="M503.432,618.532s-37.071,33.1-48.632,92.553c0,0-11.329,50.448-1.854,56.871l100.313-100.2Z" fill="#fff143"/>
      <path id="Path_5" data-name="Path 5" d="M782.883,318.345l60.225,59.545,76.4-76.46s-3.847-5.808-21.811-4.168S805.8,307.84,782.883,318.345Z" fill="#ff4953"/>
      <path id="Path_1" data-name="Path 1" d="M598.208,432.682S477.145,408.119,412.837,536.444c0,0-4.621,15.954,13.907,17.51s88.56,6.456,88.56,6.456L537.6,538.144S568.451,465.155,598.208,432.682Z" fill="#ff4953"/>
      <path id="Subtraction_2" data-name="Subtraction 2" d="M18.9,108h0A63.11,63.11,0,0,1,5.077,87.819a62.919,62.919,0,0,1,5.683-60.043A63.184,63.184,0,0,1,38.478,4.951,62.916,62.916,0,0,1,98.45,10.913a63.451,63.451,0,0,1,9.354,7.8L18.9,107.995Z" transform="translate(677 418)" fill="#0c3c6f"/>
      <path id="Subtraction_1" data-name="Subtraction 1" d="M9.658,55.619h0A32.5,32.5,0,0,1,55.153,9.2Z" transform="translate(708 449)" fill="#00d0aa"/>
    </g>
    <g id="LowerPart" transform="translate(924.062 302.218) rotate(90)">
      <path id="Path_2-2" data-name="Path 2" d="M843.589,537.94S797.431,369.683,597.8,318.345l-60.365,60.049,233.2,232.3Z" transform="translate(-462.231 -296.948)" fill="#c5ecfe"/>
      <path id="Path_3-2" data-name="Path 3" d="M485.4,610.383l57.3,57.542,65.617-66.542s5.645-9.107-3.2-17.5l-46.149-45.821Z" transform="translate(-177.32 -296.948)" fill="#001037"/>
      <path id="Path_4-2" data-name="Path 4" d="M497.961,617.77s37.571,33.859,49.133,93.315c0,0,11.126,50.483,1.65,56.906L448.557,667.729Z" transform="translate(-83.101 -296.948)" fill="#ffbc35"/>
      <path id="Path_5-2" data-name="Path 5" d="M918.793,318.345,858.568,377.89l-76.522-76.355s3.97-5.913,21.934-4.274S895.876,307.84,918.793,318.345Z" transform="translate(-782.883 -296.948)" fill="#ff0031"/>
      <path id="Path_1-2" data-name="Path 1" d="M412.325,432.682S533.387,408.119,597.7,536.444c0,0,4.621,15.954-13.907,17.51s-88.56,6.456-88.56,6.456l-22.294-22.266S442.081,465.156,412.325,432.682Z" transform="translate(-91.74 -296.949)" fill="#ff0031"/>
      <path id="Subtraction_2-2" data-name="Subtraction 2" d="M63,108A62.706,62.706,0,0,1,27.776,97.236,63.184,63.184,0,0,1,4.951,69.518,62.918,62.918,0,0,1,11.036,9.367a63.465,63.465,0,0,1,7.88-9.377l89.028,89.155a63.119,63.119,0,0,1-20.158,13.789A62.587,62.587,0,0,1,63,108Z" transform="translate(241.793 229.047) rotate(180)" fill="#001037"/>
      <path id="Subtraction_1-2" data-name="Subtraction 1" d="M32.5,55.619A32.472,32.472,0,0,1,0,23.119,32.4,32.4,0,0,1,9.666-.007l45.8,46.121a32.395,32.395,0,0,1-22.967,9.5Z" transform="translate(210.793 207.671) rotate(180)" fill="#00b0b7"/>
    </g>
  </g>
<head xmlns=""/></svg>